<svg xmlns="http://www.w3.org/2000/svg" viewBox="0 0 512 512"><path fill="#888" d="M500 176h-60l-17-42c-17-42-57-70-103-70H193c-47 0-87 28-104 70l-17 42H12c-8 0-14 7-12 15l6 24c2 5 7 9 12 9h20a64 64 0 00-22 48v48c0 16 6 31 16 42v54c0 18 14 32 32 32h32c18 0 32-14 32-32v-32h256v32c0 18 14 32 32 32h32c18 0 32-14 32-32v-54c10-11 16-26 16-42v-48c0-19-9-36-22-48h20c6 0 10-4 12-9l6-24c2-8-4-15-12-15zm-352-18c7-18 25-30 45-30h127c19 0 37 12 44 30l20 50H128l20-50zM96 320c-19 0-32-13-32-32s13-32 32-32 48 29 48 48-29 16-48 16zm320 0c-19 0-48 3-48-16s29-48 48-48 32 13 32 32-13 32-32 32z"/></svg>
