<svg xmlns="http://www.w3.org/2000/svg" viewBox="0 0 384 512"><defs/><path fill="#eb1000" d="M182 256c-5-16-5-47-2-47 8 0 8 37 2 47zm-2 47c-7 21-17 44-28 63 18-7 39-17 63-22-13-9-25-23-35-41zM86 428c0 1 13-5 35-40-7 6-29 24-35 40zm162-268h136v328c0 13-11 24-24 24H24c-13 0-24-11-24-24V24C0 11 11 0 24 0h200v136c0 13 11 24 24 24zm-8 172c-20-12-33-29-43-54 5-18 12-47 7-64-5-30-43-27-48-7-5 18-1 44 8 77-12 28-29 65-41 86-27 14-74 44-55 68 6 7 16 10 22 10 18 0 35-18 61-62 26-8 54-19 79-23 22 12 47 19 64 19 29 0 31-32 20-43-14-14-55-10-74-7zm137-227L279 7c-4-4-11-7-17-7h-6v128h128v-6c0-6-2-12-7-17zm-74 255c4-2-3-12-43-9 37 16 43 9 43 9z"/></svg>
