<svg xmlns="http://www.w3.org/2000/svg" viewBox="0 0 512 512"><path fill="#888" d="M304 320a16 16 0 1016 16 16 16 0 00-16-16zm32-96a16 16 0 1016 16 16 16 0 00-16-16zm32 64a16 16 0 10-16-16 16 16 0 0016 16zm-32 32a16 16 0 10-16-16 16 16 0 0016 16zm-32-64a16 16 0 1016 16 16 16 0 00-16-16zm128-32a16 16 0 10-16-16 16 16 0 0016 16zm-48 16a16 16 0 1016-16 16 16 0 00-16 16zm-16-48a16 16 0 1016 16 16 16 0 00-16-16zm96 32a16 16 0 1016 16 16 16 0 00-16-16zm32-32a16 16 0 1016 16 16 16 0 00-16-16zm-64 64a16 16 0 1016 16 16 16 0 00-16-16zm-32 32a16 16 0 1016 16 16 16 0 00-16-16zm-64 64a16 16 0 1016 16 16 16 0 00-16-16zm-32 32a16 16 0 1016 16 16 16 0 00-16-16zm64-64a16 16 0 1016 16 16 16 0 00-16-16zm22-218l-12-12a16 16 0 00-22 0l-6 6a111 111 0 00-78-32c-19 0-37 5-53 14l-10-10a122 122 0 00-86-36C55 32 0 93 0 161v303a16 16 0 0016 16h32a16 16 0 0016-16V158c0-30 21-58 51-62a58 58 0 0149 17l10 10c-9 16-14 34-14 53a111 111 0 0032 78l-6 6a16 16 0 000 22l12 12a16 16 0 0022 0l170-170a16 16 0 000-22z"/></svg>
